<!-- icon666.com - MILLIONS vector ICONS FREE --><svg id="svg8" viewBox="0 0 110.99999 111" xmlns="http://www.w3.org/2000/svg" xmlns:svg="http://www.w3.org/2000/svg"><g id="layer1"><g id="g1861" fill="#f97316" transform="translate(1091.504 611.484)"><path id="path1454" d="m-1061.4604-598.75586a4.5872432 4.5872432 0 0 0 -3.8164 2.04255l-25.4567 38.18498a4.5872432 4.5872432 0 0 0 0 5.08847l25.4567 38.18498a4.5872432 4.5872432 0 0 0 3.8164 2.04255h76.36991a4.5872432 4.5872432 0 0 0 4.58678-4.58678v-76.36997a4.5872432 4.5872432 0 0 0 -4.58678-4.58678zm2.4546 9.17357h69.32852v67.19639h-69.32852l-22.3982-33.59819z" font-variant-ligatures="normal" font-variant-position="normal" font-variant-caps="normal" font-variant-numeric="normal" font-variant-alternates="normal" font-variant-east-asian="normal" font-feature-settings="normal" font-variation-settings="normal" text-indent="0" text-align="start" text-decoration-line="none" text-decoration-style="solid" text-decoration-color="#000000" text-transform="none" text-orientation="mixed" white-space="normal" shape-padding="0" shape-margin="0" inline-size="0" isolation="auto" mix-blend-mode="normal" solid-color="#000000" solid-opacity="1" vector-effect="none"/><path id="path1458" d="m-1040.8774-573.2993a4.5867845 4.5867845 0 0 0 -3.2231 1.34395 4.5867845 4.5867845 0 0 0 0 6.48606l9.4849 9.4854-9.4849 9.48495a4.5867845 4.5867845 0 0 0 0 6.48604 4.5867845 4.5867845 0 0 0 6.486 0l9.485-9.48493 9.4854 9.48493a4.5867845 4.5867845 0 0 0 6.486 0 4.5867845 4.5867845 0 0 0 0-6.48604l-9.4854-9.48495 9.4854-9.4854a4.5867845 4.5867845 0 0 0 0-6.48606 4.5867845 4.5867845 0 0 0 -3.2624-1.34395 4.5867845 4.5867845 0 0 0 -3.2236 1.34395l-9.4854 9.48542-9.485-9.48542a4.5867845 4.5867845 0 0 0 -3.2629-1.34395z" font-variant-ligatures="normal" font-variant-position="normal" font-variant-caps="normal" font-variant-numeric="normal" font-variant-alternates="normal" font-variant-east-asian="normal" font-feature-settings="normal" font-variation-settings="normal" text-indent="0" text-align="start" text-decoration-line="none" text-decoration-style="solid" text-decoration-color="#000000" text-transform="none" text-orientation="mixed" white-space="normal" shape-padding="0" shape-margin="0" inline-size="0" isolation="auto" mix-blend-mode="normal" solid-color="#000000" solid-opacity="1" vector-effect="none"/></g></g></svg>